<svg width="64" height="88" viewBox="0 0 64 88" fill="none" xmlns="http://www.w3.org/2000/svg">
<path d="M0 32C0 14.3269 14.3269 0 32 0C49.6731 0 64 14.3269 64 32C64 49.6731 49.6731 64 32 64C14.3269 64 0 49.6731 0 32Z" fill="#F3701A" fill-opacity="0.1"/>
<path d="M32.0001 17.3334L42.9584 19.7601C43.2605 19.8312 43.5094 19.9912 43.7049 20.2401C43.9004 20.489 43.9982 20.7645 43.9982 21.0667V34.3734C43.9982 35.7245 43.6827 36.9867 43.0517 38.1601C42.4207 39.3334 41.5453 40.2934 40.4254 41.0401L32.0001 46.6667L23.5747 41.0401C22.4549 40.2934 21.5795 39.3334 20.9485 38.1601C20.3175 36.9867 20.002 35.7245 20.002 34.3734V21.0667C20.002 20.7645 20.0997 20.489 20.2952 20.2401C20.4908 19.9912 20.7396 19.8312 21.0418 19.7601L32.0001 17.3334ZM32.0001 20.0534L22.6682 22.1334V34.3734C22.6682 35.2801 22.8771 36.1245 23.2948 36.9067C23.7125 37.689 24.2946 38.329 25.0412 38.8267L32.0001 43.4667L38.959 38.8267C39.7055 38.329 40.2877 37.689 40.7054 36.9067C41.1231 36.1245 41.332 35.2801 41.332 34.3734V22.1334L32.0001 20.0534ZM37.9458 26.9601L39.8122 28.8534L31.3335 37.3334L25.6811 31.6801L27.5741 29.7867L31.3335 33.5734L37.9458 26.9601Z" fill="#F3701A"/>
</svg>
