<svg width="64" height="88" viewBox="0 0 64 88" fill="none" xmlns="http://www.w3.org/2000/svg">
<path d="M0 32C0 14.3269 14.3269 0 32 0C49.6731 0 64 14.3269 64 32C64 49.6731 49.6731 64 32 64C14.3269 64 0 49.6731 0 32Z" fill="#F3701A" fill-opacity="0.1"/>
<path d="M32.0002 45.3333C30.1871 45.3333 28.4541 44.9866 26.801 44.2933C25.219 43.6177 23.8104 42.6621 22.575 41.4266C21.3396 40.191 20.3842 38.7821 19.7088 37.1999C19.0156 35.5466 18.6689 33.8133 18.6689 31.9999C18.6689 30.1866 19.0156 28.4533 19.7088 26.7999C20.3842 25.2177 21.3396 23.8088 22.575 22.5733C23.8104 21.3377 25.219 20.3821 26.801 19.7066C28.4541 19.0133 30.1871 18.6666 32.0002 18.6666C33.8132 18.6666 35.5463 19.0133 37.1994 19.7066C38.7814 20.3821 40.19 21.3377 41.4254 22.5733C42.6608 23.8088 43.6162 25.2177 44.2916 26.7999C44.9848 28.4533 45.3314 30.1866 45.3314 31.9999C45.3314 33.8133 44.9848 35.5466 44.2916 37.1999C43.6162 38.7821 42.6608 40.191 41.4254 41.4266C40.19 42.6621 38.7814 43.6177 37.1994 44.2933C35.5463 44.9866 33.8132 45.3333 32.0002 45.3333ZM28.9607 42.2133C27.6275 39.4044 26.8721 36.4444 26.6944 33.3333H21.4152C21.5929 34.7199 22.024 36.0177 22.7083 37.2266C23.3927 38.4355 24.2725 39.471 25.3479 40.3333C26.4233 41.1955 27.6275 41.8221 28.9607 42.2133ZM29.3873 33.3333C29.5828 36.5333 30.4538 39.5377 32.0002 42.3466C33.5466 39.5377 34.4176 36.5333 34.6131 33.3333H29.3873ZM42.5852 33.3333H37.306C37.1283 36.4444 36.3817 39.4044 35.0664 42.2133C36.3817 41.8221 37.5771 41.1955 38.6525 40.3333C39.7279 39.471 40.6077 38.4355 41.2921 37.2266C41.9764 36.0177 42.4075 34.7199 42.5852 33.3333ZM21.4152 30.6666H26.6944C26.8721 27.5555 27.6275 24.5955 28.9607 21.7866C27.6275 22.1777 26.4233 22.8044 25.3479 23.6666C24.2725 24.5288 23.3927 25.5644 22.7083 26.7733C22.024 27.9821 21.5929 29.2799 21.4152 30.6666ZM29.3873 30.6666H34.6131C34.4176 27.4666 33.5466 24.4621 32.0002 21.6533C30.4538 24.4621 29.5828 27.4666 29.3873 30.6666ZM35.0664 21.7866C36.3817 24.5955 37.1283 27.5555 37.306 30.6666H42.5852C42.4075 29.2799 41.9764 27.9821 41.2921 26.7733C40.6077 25.5644 39.7279 24.5288 38.6525 23.6666C37.5771 22.8044 36.3817 22.1777 35.0664 21.7866Z" fill="#F3701A"/>
</svg>
