<svg width="64" height="88" viewBox="0 0 64 88" fill="none" xmlns="http://www.w3.org/2000/svg">
<path d="M0 32C0 14.3269 14.3269 0 32 0C49.6731 0 64 14.3269 64 32C64 49.6731 49.6731 64 32 64C14.3269 64 0 49.6731 0 32Z" fill="#F3701A" fill-opacity="0.1"/>
<path d="M39.9988 27.3333H42.6651C43.0384 27.3333 43.3539 27.4622 43.6116 27.72C43.8693 27.9778 43.9982 28.2933 43.9982 28.6667V44.6667C43.9982 45.04 43.8693 45.3556 43.6116 45.6133C43.3539 45.8711 43.0384 46 42.6651 46H21.3351C20.9618 46 20.6463 45.8711 20.3886 45.6133C20.1308 45.3556 20.002 45.04 20.002 44.6667V28.6667C20.002 28.2933 20.1308 27.9778 20.3886 27.72C20.6463 27.4622 20.9618 27.3333 21.3351 27.3333H24.0013V26C24.0013 24.56 24.3657 23.2178 25.0945 21.9733C25.8055 20.7644 26.7653 19.8044 27.974 19.0933C29.2183 18.3644 30.5603 18 32.0001 18C33.4399 18 34.7819 18.3644 36.0261 19.0933C37.2348 19.8044 38.1947 20.7644 38.9057 21.9733C39.6344 23.2178 39.9988 24.56 39.9988 26V27.3333ZM22.6682 30V43.3333H41.332V30H22.6682ZM30.667 35.3333H33.3332V38H30.667V35.3333ZM25.3345 35.3333H28.0007V38H25.3345V35.3333ZM35.9995 35.3333H38.6657V38H35.9995V35.3333ZM37.3326 27.3333V26C37.3326 25.04 37.0926 24.1511 36.6127 23.3333C36.1328 22.5156 35.484 21.8667 34.6663 21.3867C33.8487 20.9067 32.9599 20.6667 32.0001 20.6667C31.0402 20.6667 30.1515 20.9067 29.3338 21.3867C28.5162 21.8667 27.8674 22.5156 27.3875 23.3333C26.9075 24.1511 26.6676 25.04 26.6676 26V27.3333H37.3326Z" fill="#F3701A"/>
</svg>
