<svg width="64" height="88" viewBox="0 0 64 88" fill="none" xmlns="http://www.w3.org/2000/svg">
<path d="M0 32C0 14.3269 14.3269 0 32 0C49.6731 0 64 14.3269 64 32C64 49.6731 49.6731 64 32 64C14.3269 64 0 49.6731 0 32Z" fill="#F3701A" fill-opacity="0.1"/>
<path d="M18.6689 42.6666H45.3314V45.3333H18.6689V42.6666ZM21.3352 31.9999H24.0014V41.3333H21.3352V31.9999ZM28.0008 31.9999H30.6671V41.3333H28.0008V31.9999ZM33.3333 31.9999H35.9996V41.3333H33.3333V31.9999ZM39.9989 31.9999H42.6652V41.3333H39.9989V31.9999ZM18.6689 25.3333L32.0002 18.6666L45.3314 25.3333V30.6666H18.6689V25.3333ZM21.3352 26.9866V27.9999H42.6652V26.9866L32.0002 21.6533L21.3352 26.9866ZM32.0002 26.6666C31.6269 26.6666 31.3114 26.5377 31.0537 26.2799C30.7959 26.0221 30.6671 25.7066 30.6671 25.3333C30.6671 24.9599 30.7959 24.6444 31.0537 24.3866C31.3114 24.1288 31.6269 23.9999 32.0002 23.9999C32.3735 23.9999 32.689 24.1288 32.9467 24.3866C33.2045 24.6444 33.3333 24.9599 33.3333 25.3333C33.3333 25.7066 33.2045 26.0221 32.9467 26.2799C32.689 26.5377 32.3735 26.6666 32.0002 26.6666Z" fill="#F3701A"/>
</svg>
