<svg width="56" height="80" viewBox="0 0 56 80" fill="none" xmlns="http://www.w3.org/2000/svg">
<path d="M0 28C0 12.536 12.536 0 28 0C43.464 0 56 12.536 56 28C56 43.464 43.464 56 28 56C12.536 56 0 43.464 0 28Z" fill="#FEE9DB"/>
<path d="M28.0002 19C29.7602 19 31.4268 19.4 33.0002 20.2C34.5068 20.9733 35.7768 22.0433 36.8102 23.41C37.8435 24.7767 38.5135 26.3067 38.8202 28C38.5135 29.6933 37.8435 31.2233 36.8102 32.59C35.7768 33.9567 34.5068 35.0267 33.0002 35.8C31.4268 36.6 29.7602 37 28.0002 37C26.2402 37 24.5735 36.6 23.0002 35.8C21.4935 35.0267 20.2235 33.9567 19.1902 32.59C18.1568 31.2233 17.4868 29.6933 17.1802 28C17.4868 26.3067 18.1568 24.7767 19.1902 23.41C20.2235 22.0433 21.4935 20.9733 23.0002 20.2C24.5735 19.4 26.2402 19 28.0002 19ZM28.0002 35C29.3868 35 30.7068 34.6933 31.9602 34.08C33.1735 33.4933 34.2035 32.6667 35.0502 31.6C35.8968 30.5333 36.4735 29.3333 36.7802 28C36.4735 26.6667 35.8968 25.4667 35.0502 24.4C34.2035 23.3333 33.1735 22.5067 31.9602 21.92C30.7068 21.3067 29.3868 21 28.0002 21C26.6135 21 25.2935 21.3067 24.0402 21.92C22.8268 22.5067 21.7968 23.3333 20.9502 24.4C20.1035 25.4667 19.5268 26.6667 19.2202 28C19.5268 29.3333 20.1035 30.5333 20.9502 31.6C21.7968 32.6667 22.8268 33.4933 24.0402 34.08C25.2935 34.6933 26.6135 35 28.0002 35ZM28.0002 32.5C27.1868 32.5 26.4368 32.2967 25.7502 31.89C25.0635 31.4833 24.5168 30.9367 24.1102 30.25C23.7035 29.5633 23.5002 28.8133 23.5002 28C23.5002 27.1867 23.7035 26.4367 24.1102 25.75C24.5168 25.0633 25.0635 24.5167 25.7502 24.11C26.4368 23.7033 27.1868 23.5 28.0002 23.5C28.8135 23.5 29.5635 23.7033 30.2502 24.11C30.9368 24.5167 31.4835 25.0633 31.8902 25.75C32.2968 26.4367 32.5002 27.1867 32.5002 28C32.5002 28.8133 32.2968 29.5633 31.8902 30.25C31.4835 30.9367 30.9368 31.4833 30.2502 31.89C29.5635 32.2967 28.8135 32.5 28.0002 32.5ZM28.0002 30.5C28.4535 30.5 28.8702 30.3867 29.2502 30.16C29.6302 29.9333 29.9335 29.63 30.1602 29.25C30.3868 28.87 30.5002 28.4533 30.5002 28C30.5002 27.5467 30.3868 27.13 30.1602 26.75C29.9335 26.37 29.6302 26.0667 29.2502 25.84C28.8702 25.6133 28.4535 25.5 28.0002 25.5C27.5468 25.5 27.1302 25.6133 26.7502 25.84C26.3702 26.0667 26.0668 26.37 25.8402 26.75C25.6135 27.13 25.5002 27.5467 25.5002 28C25.5002 28.4533 25.6135 28.87 25.8402 29.25C26.0668 29.63 26.3702 29.9333 26.7502 30.16C27.1302 30.3867 27.5468 30.5 28.0002 30.5Z" fill="#F3701A"/>
</svg>
