<svg width="56" height="80" viewBox="0 0 56 80" fill="none" xmlns="http://www.w3.org/2000/svg">
<path d="M0 28C0 12.536 12.536 0 28 0C43.464 0 56 12.536 56 28C56 43.464 43.464 56 28 56C12.536 56 0 43.464 0 28Z" fill="#FEE9DB"/>
<path d="M33 20C34.08 20 35.0867 20.2733 36.02 20.82C36.9267 21.3533 37.6467 22.0733 38.18 22.98C38.7267 23.9133 39 24.92 39 26V30C39 31.08 38.7267 32.0867 38.18 33.02C37.6467 33.9267 36.9267 34.6467 36.02 35.18C35.0867 35.7267 34.08 36 33 36H23C21.92 36 20.9133 35.7267 19.98 35.18C19.0733 34.6467 18.3533 33.9267 17.82 33.02C17.2733 32.0867 17 31.08 17 30V26C17 24.92 17.2733 23.9133 17.82 22.98C18.3533 22.0733 19.0733 21.3533 19.98 20.82C20.9133 20.2733 21.92 20 23 20H33ZM33 22H23C22.2933 22 21.6433 22.17 21.05 22.51C20.4567 22.85 19.9767 23.31 19.61 23.89C19.2433 24.47 19.04 25.1067 19 25.8V30C19 30.7067 19.17 31.3567 19.51 31.95C19.85 32.5433 20.31 33.0233 20.89 33.39C21.47 33.7567 22.1067 33.96 22.8 34H33C33.7067 34 34.3567 33.83 34.95 33.49C35.5433 33.15 36.0233 32.69 36.39 32.11C36.7567 31.53 36.96 30.8933 37 30.2V26C37 25.2933 36.83 24.6433 36.49 24.05C36.15 23.4567 35.69 22.9767 35.11 22.61C34.53 22.2433 33.8933 22.04 33.2 22H33ZM26 25V27H28V29H26V31H24V29H22V27H24V25H26ZM34 29V31H32V29H34ZM32 25V27H30V25H32Z" fill="#F3701A"/>
</svg>
