<svg width="23" height="22" viewBox="0 0 23 22" fill="none" xmlns="http://www.w3.org/2000/svg">
<path d="M11.2257 6.80547C11.0718 6.80547 10.8883 6.76992 10.6751 6.69883C10.533 6.66328 10.3139 6.58034 10.0179 6.45C9.59159 6.28411 9.26595 6.17155 9.04095 6.1123C8.65018 5.99381 8.29493 5.94049 7.9752 5.95234C7.14629 5.96419 6.3677 6.19228 5.63944 6.63662C4.91117 7.08096 4.33389 7.67637 3.90759 8.42285C3.36287 9.37077 3.0846 10.4964 3.07275 11.7998C3.07275 12.9492 3.27998 14.14 3.69444 15.3723C4.06153 16.4979 4.54704 17.4932 5.15097 18.3582C5.51806 18.8796 5.8141 19.2765 6.03909 19.549C6.39434 19.9637 6.73775 20.2777 7.06932 20.491C7.46009 20.7398 7.85679 20.8583 8.2594 20.8465C8.51992 20.8346 8.77452 20.7932 9.02319 20.7221C9.17713 20.6747 9.3962 20.5917 9.6804 20.4732C10.012 20.3311 10.2725 20.2303 10.462 20.1711C10.7935 20.0881 11.134 20.0467 11.4833 20.0467C11.8326 20.0467 12.1612 20.0881 12.4691 20.1711C12.6467 20.2185 12.8895 20.3103 13.1974 20.4466C13.5053 20.5828 13.7421 20.6747 13.9079 20.7221C14.1802 20.7932 14.4585 20.8287 14.7427 20.8287C15.1572 20.8169 15.5539 20.6924 15.9328 20.4555C16.2525 20.254 16.5782 19.9578 16.9097 19.5668C17.1229 19.3061 17.4071 18.9151 17.7623 18.3937C18.1531 17.8131 18.4965 17.1852 18.7926 16.5098C18.9465 16.1543 19.059 15.8521 19.1301 15.6033C18.9524 15.5441 18.7215 15.4137 18.4373 15.2123C17.9163 14.8687 17.4959 14.454 17.1762 13.9682C16.7262 13.2809 16.4953 12.493 16.4834 11.6043C16.4716 10.8697 16.6433 10.1824 16.9986 9.54258C17.2591 9.08047 17.5966 8.66575 18.011 8.29844C18.236 8.10885 18.4373 7.96667 18.6149 7.87187C18.1058 7.12539 17.4367 6.58626 16.6078 6.25449C16.1223 6.06491 15.5894 5.95234 15.0092 5.9168C14.5592 5.88125 14.0855 5.92864 13.5882 6.05898C13.2921 6.13008 12.8836 6.27226 12.3625 6.48555C12.0665 6.59219 11.8593 6.6692 11.7409 6.7166C11.5277 6.77584 11.356 6.80547 11.2257 6.80547ZM13.9967 4.29941C14.3638 3.861 14.6361 3.37519 14.8138 2.84199C15.0151 2.26139 15.0861 1.69857 15.0269 1.15351C14.5296 1.16537 14.0115 1.31051 13.4727 1.58896C12.9339 1.86741 12.4869 2.214 12.1316 2.62871C11.7764 3.04342 11.4981 3.50553 11.2968 4.01504C11.0836 4.59564 11.0126 5.15254 11.0836 5.68574C11.6047 5.73314 12.1376 5.61465 12.6823 5.33027C13.1915 5.08144 13.6296 4.73782 13.9967 4.29941Z" fill="white"/>
</svg>
