<svg width="23" height="22" viewBox="0 0 23 22" fill="none" xmlns="http://www.w3.org/2000/svg">
<path d="M3.64127 1.95327L12.6824 11L3.64127 20.0466C3.46365 19.9755 3.32747 19.8511 3.23274 19.6734C3.14984 19.5431 3.1084 19.3949 3.1084 19.2291V2.77085C3.1084 2.58127 3.15873 2.41242 3.25938 2.26431C3.36003 2.1162 3.48733 2.01252 3.64127 1.95327ZM13.3218 11.622L15.3645 13.666L5.64844 19.3001L13.3218 11.622ZM16.1638 8.77827L18.6506 10.2357C18.8637 10.3542 19.0029 10.5319 19.068 10.7689C19.1331 11.0059 19.1006 11.231 18.9703 11.4443C18.8993 11.5865 18.7927 11.6931 18.6506 11.7642L16.1638 13.2216L13.9435 11L16.1638 8.77827ZM5.64844 2.69976L15.3645 8.31616L13.3218 10.3779L5.64844 2.69976Z" fill="white"/>
</svg>
