<svg width="250" height="250" viewBox="0 0 250 250" fill="none" xmlns="http://www.w3.org/2000/svg">
<circle cx="125" cy="125" r="124.5" stroke="url(#paint0_linear_0_1)"/>
<circle cx="125" cy="125" r="95.5" stroke="url(#paint1_linear_0_1)"/>
<circle cx="125" cy="125" r="72.5" stroke="url(#paint2_linear_0_1)"/>
<path d="M85 125C85 102.909 102.909 85 125 85C147.091 85 165 102.909 165 125C165 147.091 147.091 165 125 165C102.909 165 85 147.091 85 125Z" fill="#F3701A" fill-opacity="0.1"/>
<path d="M125.667 128.68V131.453C124.813 131.151 123.925 131 123 131C121.561 131 120.219 131.364 118.974 132.093C117.766 132.804 116.806 133.764 116.095 134.973C115.366 136.218 115.002 137.56 115.002 139H112.335C112.335 137.062 112.824 135.267 113.802 133.613C114.744 132.013 116.015 130.742 117.615 129.8C119.268 128.822 121.063 128.333 123 128.333C123.907 128.333 124.796 128.449 125.667 128.68ZM123 127C121.543 127 120.201 126.636 118.974 125.907C117.766 125.196 116.806 124.236 116.095 123.027C115.366 121.8 115.002 120.458 115.002 119C115.002 117.542 115.366 116.2 116.095 114.973C116.806 113.764 117.766 112.804 118.974 112.093C120.201 111.364 121.543 111 123 111C124.458 111 125.8 111.364 127.026 112.093C128.235 112.804 129.195 113.764 129.906 114.973C130.635 116.2 130.999 117.542 130.999 119C130.999 120.458 130.635 121.8 129.906 123.027C129.195 124.236 128.235 125.196 127.026 125.907C125.8 126.636 124.458 127 123 127ZM123 124.333C123.96 124.333 124.849 124.093 125.667 123.613C126.484 123.133 127.133 122.484 127.613 121.667C128.093 120.849 128.333 119.96 128.333 119C128.333 118.04 128.093 117.151 127.613 116.333C127.133 115.516 126.484 114.867 125.667 114.387C124.849 113.907 123.96 113.667 123 113.667C122.041 113.667 121.152 113.907 120.334 114.387C119.517 114.867 118.868 115.516 118.388 116.333C117.908 117.151 117.668 118.04 117.668 119C117.668 119.96 117.908 120.849 118.388 121.667C118.868 122.484 119.517 123.133 120.334 123.613C121.152 124.093 122.041 124.333 123 124.333ZM130.999 132.333V128.333H133.665V132.333H137.665V135H133.665V139H130.999V135H127V132.333H130.999Z" fill="#F3701A"/>
<defs>
<linearGradient id="paint0_linear_0_1" x1="235.5" y1="182" x2="26.5" y2="51.5" gradientUnits="userSpaceOnUse">
<stop stop-color="white"/>
<stop offset="1" stop-color="#FFC096"/>
</linearGradient>
<linearGradient id="paint1_linear_0_1" x1="238.5" y1="117" x2="183.5" y2="152.5" gradientUnits="userSpaceOnUse">
<stop stop-color="white"/>
<stop offset="1" stop-color="#FFC096"/>
</linearGradient>
<linearGradient id="paint2_linear_0_1" x1="107.5" y1="198" x2="104" y2="178.5" gradientUnits="userSpaceOnUse">
<stop stop-color="white"/>
<stop offset="1" stop-color="#FFC096"/>
</linearGradient>
</defs>
</svg>
