<svg width="250" height="250" viewBox="0 0 250 250" fill="none" xmlns="http://www.w3.org/2000/svg">
<circle cx="125" cy="125" r="124.5" stroke="url(#paint0_linear_0_1)"/>
<circle cx="125" cy="125" r="95.5" stroke="url(#paint1_linear_0_1)"/>
<circle cx="125" cy="125" r="72.5" stroke="url(#paint2_linear_0_1)"/>
<path d="M85 125C85 102.909 102.909 85 125 85C147.091 85 165 102.909 165 125C165 147.091 147.091 165 125 165C102.909 165 85 147.091 85 125Z" fill="#F3701A" fill-opacity="0.1"/>
<path d="M136.998 113C137.372 113 137.687 113.129 137.945 113.387C138.203 113.644 138.331 113.96 138.331 114.333V121.667C137.727 121.667 137.172 121.818 136.665 122.12C136.158 122.422 135.754 122.827 135.452 123.333C135.15 123.84 134.999 124.396 134.999 125C134.999 125.604 135.15 126.16 135.452 126.667C135.754 127.173 136.158 127.578 136.665 127.88C137.172 128.182 137.727 128.333 138.331 128.333V135.667C138.331 136.04 138.203 136.356 137.945 136.613C137.687 136.871 137.372 137 136.998 137H113.002C112.629 137 112.313 136.871 112.056 136.613C111.798 136.356 111.669 136.04 111.669 135.667V128.333C112.273 128.333 112.829 128.182 113.335 127.88C113.842 127.578 114.246 127.173 114.548 126.667C114.851 126.16 115.002 125.604 115.002 125C115.002 124.396 114.851 123.84 114.548 123.333C114.246 122.827 113.842 122.422 113.335 122.12C112.829 121.818 112.273 121.667 111.669 121.667V114.333C111.669 113.96 111.798 113.644 112.056 113.387C112.313 113.129 112.629 113 113.002 113H136.998ZM135.665 115.667H114.335V119.613L114.548 119.72C115.455 120.218 116.188 120.911 116.748 121.8C117.308 122.689 117.615 123.658 117.668 124.707V125C117.668 126.12 117.384 127.147 116.815 128.08C116.246 129.013 115.491 129.747 114.548 130.28L114.335 130.387V134.333H135.665V130.387L135.452 130.28C134.545 129.782 133.812 129.089 133.252 128.2C132.692 127.311 132.386 126.342 132.332 125.293V125C132.332 123.88 132.617 122.853 133.186 121.92C133.754 120.987 134.51 120.253 135.452 119.72L135.665 119.613V115.667ZM130.333 121V129H119.668V121H130.333Z" fill="#F3701A"/>
<defs>
<linearGradient id="paint0_linear_0_1" x1="235.5" y1="182" x2="26.5" y2="51.5" gradientUnits="userSpaceOnUse">
<stop stop-color="white"/>
<stop offset="1" stop-color="#FFC096"/>
</linearGradient>
<linearGradient id="paint1_linear_0_1" x1="238.5" y1="117" x2="183.5" y2="152.5" gradientUnits="userSpaceOnUse">
<stop stop-color="white"/>
<stop offset="1" stop-color="#FFC096"/>
</linearGradient>
<linearGradient id="paint2_linear_0_1" x1="107.5" y1="198" x2="104" y2="178.5" gradientUnits="userSpaceOnUse">
<stop stop-color="white"/>
<stop offset="1" stop-color="#FFC096"/>
</linearGradient>
</defs>
</svg>
