<svg width="250" height="250" viewBox="0 0 250 250" fill="none" xmlns="http://www.w3.org/2000/svg">
<circle cx="125" cy="125" r="124.5" stroke="url(#paint0_linear_0_1)"/>
<circle cx="125" cy="125" r="95.5" stroke="url(#paint1_linear_0_1)"/>
<circle cx="125" cy="125" r="72.5" stroke="url(#paint2_linear_0_1)"/>
<path d="M85 125C85 102.909 102.909 85 125 85C147.091 85 165 102.909 165 125C165 147.091 147.091 165 125 165C102.909 165 85 147.091 85 125Z" fill="#F3701A" fill-opacity="0.1"/>
<path d="M137.664 118.333H138.998V131.667H137.664V135.667C137.664 136.04 137.536 136.356 137.278 136.613C137.02 136.871 136.705 137 136.331 137H112.335C111.962 137 111.646 136.871 111.389 136.613C111.131 136.356 111.002 136.04 111.002 135.667V114.333C111.002 113.96 111.131 113.644 111.389 113.387C111.646 113.129 111.962 113 112.335 113H136.331C136.705 113 137.02 113.129 137.278 113.387C137.536 113.644 137.664 113.96 137.664 114.333V118.333ZM134.998 131.667H126.999C125.791 131.667 124.675 131.369 123.653 130.773C122.631 130.178 121.822 129.369 121.227 128.347C120.632 127.324 120.334 126.209 120.334 125C120.334 123.791 120.632 122.676 121.227 121.653C121.822 120.631 122.631 119.822 123.653 119.227C124.675 118.631 125.791 118.333 126.999 118.333H134.998V115.667H113.668V134.333H134.998V131.667ZM136.331 129V121H126.999C126.271 121 125.6 121.178 124.986 121.533C124.373 121.889 123.889 122.373 123.533 122.987C123.178 123.6 123 124.271 123 125C123 125.729 123.178 126.4 123.533 127.013C123.889 127.627 124.373 128.111 124.986 128.467C125.6 128.822 126.271 129 126.999 129H136.331ZM126.999 123.667H130.999V126.333H126.999V123.667Z" fill="#F3701A"/>
<defs>
<linearGradient id="paint0_linear_0_1" x1="235.5" y1="182" x2="26.5" y2="51.5" gradientUnits="userSpaceOnUse">
<stop stop-color="white"/>
<stop offset="1" stop-color="#FFC096"/>
</linearGradient>
<linearGradient id="paint1_linear_0_1" x1="238.5" y1="117" x2="183.5" y2="152.5" gradientUnits="userSpaceOnUse">
<stop stop-color="white"/>
<stop offset="1" stop-color="#FFC096"/>
</linearGradient>
<linearGradient id="paint2_linear_0_1" x1="107.5" y1="198" x2="104" y2="178.5" gradientUnits="userSpaceOnUse">
<stop stop-color="white"/>
<stop offset="1" stop-color="#FFC096"/>
</linearGradient>
</defs>
</svg>
