<?xml version="1.0" encoding="UTF-8"?>
<!DOCTYPE svg PUBLIC "-//W3C//DTD SVG 1.1//EN" "http://www.w3.org/Graphics/SVG/1.1/DTD/svg11.dtd">
<!-- Creator: CorelDRAW -->
<svg xmlns="http://www.w3.org/2000/svg" xml:space="preserve" width="3.26928in" height="1.66337in" version="1.1" style="shape-rendering:geometricPrecision; text-rendering:geometricPrecision; image-rendering:optimizeQuality; fill-rule:evenodd; clip-rule:evenodd"
viewBox="0 0 3268.86 1663.16"
 xmlns:xlink="http://www.w3.org/1999/xlink"
 xmlns:xodm="http://www.corel.com/coreldraw/odm/2003">
 <defs>
  <style type="text/css">
   <![CDATA[
    .fil0 {fill:black}
   ]]>
  </style>
 </defs>
 <g id="Layer_x0020_1">
  <metadata id="CorelCorpID_0Corel-Layer"/>
  <g id="_2264598402624">
   <path class="fil0" d="M1741.81 687.45c-5.69,126.5 -17.38,271.54 -26.49,401.19 -5.41,77.01 -6.31,84.39 53.86,74.68l-5.92 128.44c-34.67,20.92 -64.51,32.07 -116.4,30.02 -48.47,-1.92 -69.55,-20.7 -91.9,-51.84 -10.12,7.24 -19.57,17.45 -31.29,25.76 -11.83,8.38 -21.45,15.19 -34.87,21.86 -87.67,43.57 -191.43,24.31 -243.71,-48.93 -69.45,-97.32 -17.71,-295.85 -23.78,-398.58 -18.05,-3.17 -48.56,5.68 -62.22,11.77l3.37 -145.36c47.84,-28.35 209.73,-62.3 236.9,47.62 15.99,64.68 -16.28,247.24 -9.15,320.68 5.09,52.46 61.18,66.93 102.46,35.47 37.84,-28.85 42.55,-56.45 47.96,-120.06 3.58,-42.17 15.71,-300.3 21.7,-317.94l179.47 -14.78zm582.08 -185.29c-62.97,23.71 -53.1,7.68 -88.14,-1.22 3.49,6.05 -0.54,1.65 5.57,6.79l24.7 10.6c34.28,8.38 76.31,-8.43 95.69,-38.8 5.39,-8.45 13.1,-20.54 10.49,-34.63 -5.62,-30.32 -39.3,-9.77 -43.26,-9.08 -19.08,3.31 -42.6,-1.37 -59.71,-9.81 -36.89,-18.18 -39.84,-39.11 -59.3,-27.97 -17.76,10.16 -10.03,55.64 -2.47,73.3 17.12,39.98 31.63,5.79 55.28,1.36 13.45,-2.52 27.28,1.95 36.22,7.31 5.54,3.32 8.4,6.08 12.44,9.32 6.74,5.42 7.8,5.9 12.5,12.83zm22.22 -123.13c23.37,25.61 20.66,-6.43 66.38,48.82 13.52,-3.7 9.72,-1.61 18.93,-10.54 -4.93,-18.99 -21.17,-30.23 -28.76,-43.31 15.16,-9.77 35.22,0.56 42.69,-11.17 15.82,-24.86 -9.93,-22.02 -26.91,-21.45 -30.41,1.02 -66.62,13.45 -72.33,37.65zm-116.85 -89.37c-36.22,17.92 -30.8,84.58 6.98,70.44 30.77,-11.52 28.42,-87.95 -6.98,-70.44zm-490.37 48.58c-44.31,19.39 -14.85,80.37 26.81,62.48 41.11,-17.66 15.96,-81.2 -26.81,-62.48zm70.63 -78.71c-41.65,16.35 -19.82,78.61 24.54,63.32 39.18,-13.5 21.83,-81.53 -24.54,-63.32zm88.07 65.66c-19.18,4.71 -32.47,15.47 -28.19,40.2 2.76,15.93 20.7,31.2 41.14,25.89 44.83,-11.64 27.96,-76.12 -12.95,-66.09zm-78.1 80.33c-37.53,14.29 -19.97,78.64 24.84,63.09 41.58,-14.43 21.58,-80.77 -24.84,-63.09zm874.83 542.82c-36.92,-2.41 -91.94,11.66 -113.41,29.32 -12.29,10.12 -22.99,22.42 -27.85,42.48 -14.9,61.59 44.38,100.26 119.86,49.49 10.86,-7.3 12.62,-8.59 14.2,-21.43l7.2 -99.87zm-1277.38 -534.01c-19.26,1.37 -31.32,5.22 -52.56,3l-2.44 -41.83 50.05 -6.22 -1.76 -50.19c8.73,-5.88 26.71,-4.85 40.24,-5.33l4.68 53.04 53.65 -3.75c2.5,13.39 5.12,28 1.7,42.29 -13.97,4.66 -35.1,6.72 -50.53,6l3.37 50.18 -41.34 4.6 -5.07 -51.8zm-1.22 -133.92c-139.95,28.19 -109.81,246.77 40.35,219.19 51.78,-9.51 101.86,-61.52 89.22,-129.62 -10.16,-54.69 -62.21,-103.14 -129.57,-89.58zm-757.91 230.77l13.29 237.58c27.03,9.2 129.83,-24.94 157.91,-71.99 33.34,-55.85 22.25,-130.36 -35.76,-158.1 -48.75,-23.31 -83.09,-11.21 -135.44,-7.48zm1487.06 323.16c-67.78,-26.1 -126.01,-12.48 -159.13,35.37 -26.73,38.63 -40.83,135.45 -8.65,175.82 42.22,52.97 113.81,35.21 142.16,-15.34 18.79,-33.51 21.03,-147.79 25.61,-195.85zm-1462.84 143.36l14.58 253.82c38.89,-0.58 108.45,-23.01 137.77,-37.61 114.44,-56.96 94.96,-231.96 -72.7,-226.72 -13.13,0.41 -27.05,1.57 -40.16,2.87 -11.38,1.13 -29.81,2.39 -39.49,7.63zm1722.91 -292.37c10.3,-19.27 57.76,-54.42 82.21,-69.41 104.38,-64 264.27,-73.62 345.16,7.57 61.35,61.57 57.47,134.03 49.5,240.86 -3.5,46.84 -8.52,93.52 -11.41,140.35 -3.24,52.34 -16.4,99.14 50.19,73.28 -2.4,31.31 -3.19,68.46 -3.98,100.06 -0.6,24.19 7.62,42.92 -46.77,56.05 -29.38,7.09 -66.32,6.45 -92.71,-3.23 -31.64,-11.59 -39.97,-24.22 -58.1,-45.13 -8.26,4.07 -20.42,18.52 -44.7,31.53 -127.66,68.38 -309,13.3 -309.93,-150.17 -0.95,-166.65 139.88,-229.02 276.35,-243.48 11.56,-1.22 22.64,-2.41 34.68,-3.55 5.48,-0.52 11.58,-0.8 16.75,-1.41 2.83,-0.33 4.66,-0.51 7.42,-1.2 5.85,-1.45 3.16,-0.41 6.52,-2.7 10.7,-14.11 6.31,-108.53 -84.81,-86.35 -52.17,12.7 -72.07,47.74 -102.25,75.4 -23.5,-28.04 -92.09,-89.45 -114.13,-118.47zm-64.78 -57c-2.2,58.66 -6.87,126.75 -12.55,184.81 -5.93,60.61 -7.66,122.11 -12.38,183.11 -7.96,102.8 -7.38,267.75 -36.69,353.25 -18.52,54.03 -39.44,90.79 -73.33,121.52 -81.9,74.28 -195.37,90.39 -303.49,64.11 -39.35,-9.57 -104.7,-43.89 -119.62,-75.55 6.87,-18.03 34.37,-60.35 44.93,-77.22 14.89,-23.78 35.42,-51.73 47.22,-75.25 16.49,7.53 82.86,81.26 166.71,53.69 55.02,-18.09 81.03,-76.32 82.67,-148.01 -29.66,14.06 -51.42,47.62 -132.87,44.48 -197.91,-7.62 -274.45,-253.24 -176.88,-442.96 41.99,-81.65 106.38,-134.64 199.02,-152.78 66.66,-13.06 96.16,-5.76 151.55,13.15l5.71 -34.33 170 -12.01zm-1130.46 20.55c-18.5,-107.4 32.36,-277.85 77.24,-345.27 73.89,-110.97 194.24,-68.39 344.15,-82.79 154.7,-14.86 240.24,-71.77 335.81,44.49 70.34,85.56 100.5,181.6 105.68,323.69 -39.87,-0.34 -78.4,5.12 -113.04,16.32 -48.42,15.65 -69.61,35.09 -88.02,42.08 -8.48,-14.26 -73.4,-84.67 -88.34,-95.52 -48.13,-34.9 -87.41,-22.45 -152.35,-17.92 -67.02,4.68 -100.5,5.99 -137.52,43.68 -37.19,37.86 -50.95,72.29 -76.42,103.66 -29.89,-13.74 -49.08,-28.17 -92.99,-35.69 -48.23,-8.26 -71.8,0.44 -114.2,3.26zm-958.35 -226.14c26.81,-31.15 88.02,-65.18 126.61,-83.34 78.43,-36.92 257.11,-65.29 348.61,-68.55 176.19,-6.29 333.97,51.89 358.58,269.39 7.45,65.83 -11.1,123.88 -35.07,170.84 -30.81,60.37 -66.48,76.06 -97.71,102.81l-3.01 2.94c-0.25,-0.48 -1.02,1.02 -1.48,1.56 52.28,12.4 98.89,43.05 131.69,71.68 128.02,111.73 111.24,315.72 -1.95,430.54 -129.61,131.48 -349.94,149.1 -533.48,175.55 -27.63,3.98 -61.37,11.17 -87.32,12.38l-45.57 -938.32c-35.2,4.53 -86.3,43.42 -104.06,50.38l-55.83 -197.86zm2248.75 83.9c12.53,-20.49 27.25,-29.03 41.63,-44.66 9.14,-9.94 13.83,-12.53 23.08,-20.34 7.59,-6.42 13.68,-13.1 21.07,-19.46l45.45 -41c53.34,-48.43 90.85,19.9 47.3,49.97 -32.97,22.76 -76.81,43.62 -116.14,54.37 -21.4,5.84 -43.32,15.8 -62.39,21.13zm-1145.09 -295.86c4.68,-26.88 34.15,-29.62 53.27,-32.31 34.18,-4.82 52.94,-6.11 63.77,20.71 -32.81,-0.93 -87.97,3.86 -117.04,11.6zm390.28 -35.5c1.17,-24.47 27.82,-27.51 53.21,-29.1 33.05,-2.08 50.09,-1.72 62.36,20.28 -24.06,-2.68 -94.41,3.04 -115.57,8.82zm309.02 70.21c-14.13,-52.9 -38.52,-108.9 -0.08,-124.96 63.97,-26.72 51.77,79.1 54.02,111.69 4.64,67.34 0.88,85.51 -18.06,149.01l-35.88 -135.74zm374.92 -4.04c-49.33,-0.71 -67.01,-6.04 -104.28,-25.57 -108.55,-56.89 -31.85,-193.94 70.1,-167.67l19.47 7.94c0.27,-0.52 1.14,0.72 1.68,1.12 -32.03,54.86 3.22,103.27 42.94,124.37l6.7 -9.33c7.53,-10.31 15.39,-18.06 30.41,-17.43 -8.24,18.55 -5.2,44.43 4.01,61.7 10.44,19.58 16.99,24.59 25.07,48.06 14.31,41.59 10.16,86.53 -1.03,128.48 -10.36,38.84 -29.87,68.11 -48.31,100.57 -11.14,19.6 -13.13,30.59 -31.33,41.86 -15.76,9.75 -28.73,22.19 -42.37,30.8 -10.53,-5.56 -14.91,-11.25 -29.62,-16.49 -38.34,-13.66 -82.08,-7.86 -121.91,-5.04 -25.52,1.81 -55.04,4.69 -80.83,8.21 -39.08,5.33 -39.54,12.22 -63.08,26.76 1.42,-84.99 16.6,-164.69 30.83,-245.67 13.7,-77.92 51.11,-139.25 104.85,-168.57 12.49,34.59 39,58.67 70.83,72.82 25.3,11.24 91.44,21.62 115.88,3.09zm-2210.23 437.06c8.53,5.7 13.33,16.35 22.05,24.02 3.82,3.35 6.72,5.62 12.49,9.11l13.74 9.7c16.85,-0.58 19.28,6.14 44.81,2.15l43.14 901.35c26.26,-0.38 39.27,6.11 62.59,2.61l176.84 -26.39c187.94,-27.3 373.23,-42.5 523.19,-161.63 42.06,-33.41 43.25,-41.5 69.68,-65.61 15.07,18.77 68.84,49.68 98.25,59.94 43.76,15.26 87.27,21.32 139.32,17.63 22.53,-1.59 49.02,-6.72 67.95,-13.1 10.4,-3.51 19.76,-7.06 29.22,-11.57 35.69,-17.02 13.38,-19.27 51.93,-5.38 37.65,13.56 60.32,14.47 102.64,13.84 -5.4,64.74 6.93,91.41 39.67,122.69 127.06,121.4 328.86,135.77 491.25,53.76 103.12,-52.08 182.31,-178.74 192.24,-289.63l50.34 19.16c72.69,22.25 173.62,26.68 241.8,-3.14 31.49,-13.77 19.37,-8.4 51.87,1.85 98.04,30.92 254.96,8.49 278.12,-115.92 5.15,-27.67 10.07,-103.74 7.9,-132.5 -3.34,-44.26 -18.55,-71.82 -47.3,-90.53l12.83 -196.47c4.83,-118.24 -29.89,-227.83 -128.03,-289.3 -37.64,-23.58 -99.53,-50.1 -156.92,-51.27 13.42,-19.08 32.79,-30.84 31.76,-70.67 -0.77,-29.84 -20.74,-54.3 -37.02,-65.2 -55.62,-37.27 -98.26,15.84 -133.92,47.38 0.47,-19.82 8.71,-37.57 6.17,-68.75 -2.43,-29.8 -11.81,-64.97 -25.99,-90.24 -14.28,-25.45 -34.66,-34.41 8,-72.49 -23.58,-29.61 -55.32,-37.76 -103.17,-25.91 -11.79,-37.57 -3.35,-52.01 23.88,-68.53 -19.46,-22.28 -54.02,-44.44 -94.53,-48.61 -47.38,-4.89 -79.56,12.01 -107.51,32.63 -19.4,14.31 -34.24,37.68 -44.18,61.4 -20.5,48.92 12.03,4.91 -49.06,56.47 -18.72,15.81 -27.99,30.68 -35.21,35.5 1.43,-39.87 -3.73,-70.52 -25.19,-92.9 -19.34,-20.17 -52.34,-29.89 -86.16,-16.18 -84.93,34.42 -37.13,125.24 -31.62,163.32 -13.81,-11.95 -33.78,-43.83 -69.01,-65.98 -46.89,-29.48 -31.62,-83.7 -147.52,-74.74 -28,2.17 -49.7,8.05 -66.53,22.82 -32.3,28.33 -4.01,33.44 -47.95,41.44 -56.96,10.37 -104.99,12.27 -164.64,12.55 -18.62,-44.88 -60.91,-53.98 -122.72,-42.6 -74.18,13.66 -75.88,59.46 -89.54,83.59 -8.38,14.82 -34.68,21.28 -74.19,99.14 -22.74,44.82 -42.34,110.03 -48.12,121 -32.1,-117.11 -120.83,-198.94 -230.79,-240.06 -127.85,-47.82 -274.14,-35.09 -413.6,-10.32 -72.49,12.88 -124.39,25.16 -182.9,52.52 -63.98,29.93 -91.76,44.02 -143.25,89.56 -52.41,46.36 -63.8,80.13 -39.75,168.32l38.14 137.82c4.82,16.28 13.63,32.9 14.5,42.34z"/>
   <path class="fil0" d="M1741.81 687.45c-4.78,106.26 -13.8,225.61 -21.96,337.92 17.67,-3.47 35.26,-7 52.78,-10.59 -4.83,-65.63 8.22,-136.26 41.25,-200.48 41.99,-81.65 106.38,-134.64 199.02,-152.78 66.66,-13.06 96.16,-5.76 151.55,13.15l5.72 -34.34 169.99 -12.01c-2.2,58.66 -6.87,126.75 -12.55,184.81 -2.06,21.01 -3.61,42.13 -4.96,63.3 132.45,-40.04 257.29,-83.21 373.05,-128.65 -12.95,-17.36 -35.95,-28.75 -74.39,-19.39 -52.17,12.7 -72.07,47.73 -102.25,75.4 -23.5,-28.05 -92.09,-89.45 -114.13,-118.47 10.3,-19.27 57.76,-54.41 82.21,-69.41 104.38,-64 264.27,-73.62 345.16,7.57 16.28,16.34 27.96,33.44 36.2,51.75 33.64,-15.14 66.18,-30.47 97.76,-45.96 -20.59,-45.91 -52.67,-85.32 -98.68,-114.14 -37.64,-23.58 -99.53,-50.09 -156.92,-51.27 13.42,-19.08 32.79,-30.84 31.76,-70.67 -0.78,-29.84 -20.74,-54.3 -37.02,-65.2 -55.62,-37.27 -98.26,15.84 -133.92,47.38 0.47,-19.82 8.72,-37.57 6.17,-68.75 -2.42,-29.8 -11.81,-64.97 -25.99,-90.24 -14.28,-25.45 -34.66,-34.42 8,-72.49 -23.58,-29.6 -55.32,-37.76 -103.17,-25.91 -11.79,-37.58 -3.35,-52 23.88,-68.53 -19.46,-22.28 -54.02,-44.44 -94.53,-48.61 -47.38,-4.89 -79.56,12 -107.52,32.62 -19.4,14.31 -34.24,37.68 -44.18,61.4 -20.5,48.92 12.03,4.9 -49.06,56.47 -18.73,15.81 -28,30.67 -35.21,35.5 1.43,-39.87 -3.73,-70.52 -25.19,-92.9 -19.34,-20.17 -52.34,-29.89 -86.15,-16.18 -84.93,34.42 -37.13,125.24 -31.63,163.32 -13.8,-11.94 -33.77,-43.83 -69.01,-65.98 -46.89,-29.48 -31.62,-83.7 -147.52,-74.74 -28,2.17 -49.7,8.05 -66.53,22.82 -32.3,28.33 -4.01,33.44 -47.95,41.44 -56.96,10.37 -104.98,12.27 -164.64,12.55 -18.62,-44.89 -60.9,-53.98 -122.73,-42.6 -74.18,13.65 -75.88,59.46 -89.53,83.59 -8.39,14.82 -34.69,21.28 -74.2,99.14 -22.74,44.82 -42.34,110.03 -48.12,121 -32.1,-117.11 -120.84,-198.94 -230.79,-240.06 -127.86,-47.82 -274.15,-35.09 -413.61,-10.31 -72.49,12.88 -124.39,25.16 -182.9,52.52 -63.99,29.92 -91.76,44.02 -143.26,89.56 -52.42,46.36 -63.8,80.13 -39.75,168.32l38.14 137.82c4.82,16.28 13.63,32.9 14.5,42.34 8.53,5.7 13.33,16.35 22.05,24.02 3.82,3.35 6.72,5.62 12.49,9.11l13.74 9.7c16.85,-0.57 19.28,6.14 44.81,2.15l20.15 421.17c35.03,1.51 70.75,2.56 107.04,3.23l-28.06 -577.65c-35.2,4.53 -86.3,43.42 -104.06,50.38l-55.83 -197.86c26.81,-31.16 88.02,-65.18 126.61,-83.34 78.43,-36.92 257.11,-65.29 348.6,-68.56 176.2,-6.28 333.97,51.89 358.58,269.39 7.46,65.83 -11.1,123.88 -35.06,170.84 -30.81,60.37 -66.48,76.06 -97.71,102.81l-3.02 2.94c-0.25,-0.48 -1.02,1.02 -1.48,1.57 52.29,12.39 98.89,43.05 131.7,71.68 65.77,57.4 93.31,139.16 89.21,220.66 13.18,-1.49 26.43,-3.05 39.68,-4.63 0.56,-85.34 16.36,-176.7 12.85,-236.06 -18.05,-3.16 -48.55,5.68 -62.22,11.77l3.37 -145.36c47.84,-28.35 209.73,-62.3 236.9,47.62 14.53,58.78 -10.79,214.91 -10.18,298.02 48.78,-7.15 97.94,-14.9 147.4,-23.25 1.59,-11.29 2.79,-24.02 4.04,-38.68 3.59,-42.16 15.71,-300.3 21.7,-317.94l179.48 -14.78zm396.34 241.39c-58.69,15.65 -118.59,30.69 -179.61,45.04 0.33,-39.36 11.62,-81.65 27.2,-104.17 33.11,-47.85 91.35,-61.46 159.13,-35.37 -2.11,22.2 -3.73,58.53 -6.71,94.51zm-1244.26 206.83c-68.76,4.69 -136.22,8.09 -202.21,10.23l-9.66 -168.21c9.69,-5.25 28.11,-6.51 39.49,-7.64 13.11,-1.3 27.03,-2.45 40.16,-2.86 126.87,-3.97 168.87,95.27 132.22,168.47zm1429.99 -633.51c-62.97,23.71 -53.1,7.67 -88.14,-1.22 3.5,6.05 -0.54,1.65 5.57,6.79l24.7 10.61c34.28,8.37 76.31,-8.43 95.69,-38.81 5.39,-8.45 13.1,-20.54 10.49,-34.63 -5.63,-30.32 -39.3,-9.77 -43.26,-9.09 -19.08,3.31 -42.6,-1.37 -59.71,-9.81 -36.89,-18.18 -39.83,-39.11 -59.3,-27.97 -17.76,10.16 -10.03,55.64 -2.47,73.3 17.12,39.98 31.63,5.79 55.28,1.36 13.45,-2.52 27.28,1.96 36.22,7.31 5.54,3.32 8.4,6.08 12.44,9.33 6.74,5.42 7.8,5.89 12.5,12.83zm22.22 -123.14c23.37,25.61 20.66,-6.43 66.38,48.82 13.52,-3.7 9.72,-1.61 18.93,-10.54 -4.93,-18.99 -21.18,-30.23 -28.77,-43.31 15.17,-9.77 35.23,0.56 42.7,-11.17 15.82,-24.86 -9.92,-22.02 -26.91,-21.45 -30.41,1.02 -66.62,13.45 -72.33,37.65zm-116.85 -89.37c-36.22,17.92 -30.8,84.58 6.97,70.44 30.78,-11.52 28.43,-87.95 -6.97,-70.44zm-490.37 48.58c-44.31,19.4 -14.85,80.38 26.81,62.48 41.12,-17.66 15.96,-81.2 -26.81,-62.48zm70.62 -78.7c-41.64,16.35 -19.82,78.6 24.54,63.32 39.18,-13.5 21.82,-81.53 -24.54,-63.32zm88.07 65.65c-19.18,4.71 -32.47,15.48 -28.19,40.2 2.76,15.92 20.71,31.19 41.14,25.89 44.83,-11.64 27.96,-76.12 -12.95,-66.09zm-78.1 80.33c-37.54,14.29 -19.98,78.65 24.83,63.09 41.58,-14.43 21.59,-80.78 -24.83,-63.09zm-402.55 8.81c-19.26,1.37 -31.31,5.22 -52.55,3l-2.44 -41.82 50.05 -6.22 -1.76 -50.19c8.73,-5.87 26.71,-4.84 40.24,-5.33l4.68 53.04 53.65 -3.75c2.5,13.39 5.12,28.01 1.7,42.3 -13.97,4.66 -35.1,6.71 -50.53,6l3.37 50.19 -41.34 4.6 -5.08 -51.8zm-1.22 -133.91c-139.95,28.19 -109.81,246.77 40.35,219.19 51.78,-9.51 101.86,-61.52 89.22,-129.62 -10.16,-54.69 -62.22,-103.14 -129.57,-89.57zm-757.91 230.77l13.28 237.58c27.03,9.2 129.83,-24.94 157.92,-71.99 33.33,-55.86 22.24,-130.36 -35.76,-158.1 -48.75,-23.31 -83.09,-11.21 -135.44,-7.49zm551.9 137.69c-18.5,-107.4 32.36,-277.85 77.24,-345.27 73.88,-110.97 194.24,-68.39 344.15,-82.79 154.7,-14.86 240.24,-71.77 335.81,44.49 70.34,85.56 100.5,181.6 105.68,323.69 -39.87,-0.34 -78.4,5.12 -113.04,16.32 -48.42,15.65 -69.61,35.08 -88.02,42.08 -8.48,-14.26 -73.4,-84.67 -88.34,-95.52 -48.13,-34.9 -87.41,-22.45 -152.35,-17.91 -67.02,4.68 -100.5,5.98 -137.52,43.68 -37.18,37.86 -50.95,72.28 -76.42,103.66 -29.89,-13.74 -49.08,-28.17 -92.99,-35.68 -48.22,-8.25 -71.8,0.44 -114.2,3.26zm1290.4 -142.24c12.53,-20.49 27.25,-29.03 41.63,-44.66 9.14,-9.94 13.84,-12.53 23.08,-20.34 7.59,-6.42 13.68,-13.1 21.07,-19.46l45.46 -41c53.34,-48.44 90.84,19.9 47.29,49.97 -32.96,22.76 -76.81,43.62 -116.13,54.36 -21.4,5.85 -43.32,15.81 -62.4,21.13zm-1145.1 -295.86c4.68,-26.88 34.16,-29.62 53.27,-32.32 34.18,-4.82 52.94,-6.11 63.77,20.71 -32.81,-0.93 -87.97,3.86 -117.04,11.6zm390.29 -35.5c1.17,-24.47 27.81,-27.5 53.21,-29.1 33.05,-2.08 50.09,-1.73 62.36,20.28 -24.06,-2.68 -94.41,3.04 -115.57,8.82zm309.02 70.21c-14.12,-52.89 -38.52,-108.89 -0.08,-124.95 63.97,-26.73 51.77,79.1 54.02,111.69 4.64,67.34 0.87,85.51 -18.05,149.01l-35.88 -135.75zm374.92 -4.03c-49.33,-0.71 -67.01,-6.04 -104.27,-25.57 -108.56,-56.89 -31.85,-193.94 70.09,-167.67l19.47 7.94c0.27,-0.52 1.14,0.72 1.67,1.13 -32.02,54.85 3.23,103.26 42.95,124.37l6.7 -9.33c7.53,-10.31 15.39,-18.06 30.4,-17.43 -8.24,18.55 -5.2,44.42 4.02,61.7 10.44,19.57 16.99,24.58 25.07,48.06 14.31,41.59 10.16,86.53 -1.04,128.48 -10.36,38.84 -29.87,68.11 -48.31,100.57 -11.13,19.6 -13.13,30.59 -31.33,41.85 -15.76,9.76 -28.73,22.19 -42.36,30.8 -10.53,-5.56 -14.92,-11.25 -29.62,-16.49 -38.35,-13.66 -82.09,-7.86 -121.92,-5.03 -25.51,1.8 -55.04,4.69 -80.83,8.21 -39.08,5.33 -39.54,12.21 -63.08,26.76 1.43,-84.99 16.6,-164.69 30.83,-245.67 13.7,-77.91 51.1,-139.25 104.84,-168.56 12.5,34.6 39,58.67 70.83,72.81 25.3,11.25 91.45,21.62 115.89,3.09z"/>
   <path class="fil0" d="M3075.93 1229.06c5.21,-52.2 -12.66,-133.48 -45.08,-161.64 4.28,48.38 2.85,102.35 -3.61,150.85 -12.55,94.2 -92.17,134.37 -178.95,140.07 -34.97,2.29 -109.76,-4.73 -130.72,-23.24 -6.23,2.57 -5.52,2.24 -11.31,6.08l-8.95 7.38c72,67.16 222.92,95.22 310.9,21.16 32.61,-27.45 61.71,-80.48 67.71,-140.67zm-2965.37 -438.15l-64.18 26.92c5.34,13.79 18.98,33.68 26.77,47.09 7.48,12.86 18.35,37.18 28.58,45.09 5.58,-10.81 57.89,-81.86 64.61,-84.89 7.48,-18.62 40.8,-55.5 52.52,-75.58l-108.3 41.38zm16.68 -105.6c17.62,5.02 32.39,12.36 53.05,16.96l-7.51 -7.35c-91.77,-74.53 -145.35,-179.43 -127.43,-301.04 3.43,-23.28 6.85,-27.83 9.4,-39.79 3.41,-16.02 4.67,-5.67 -2.24,-9.73 -1.01,7.12 -77.45,88.56 -44.1,200.95 30.04,101.21 102.72,124.92 118.82,140.01zm-22.65 -316.7c-16.21,82.54 -18.2,119.4 19.93,206.87 17.78,40.79 73.09,120.12 113.78,131.07 -9.31,-9.34 -14.99,-13.97 -20.59,-29.33 -12.79,-7.79 -43.45,-121.06 -50.58,-147.15 -15.49,-56.66 -30.99,-111.36 -2.38,-162.96 31.23,-56.31 113.17,-100.89 173.25,-127.32l68.02 -28.21c-17.58,-9.48 -87.5,-1.22 -109.04,3.51 -153.87,33.75 -185.85,147.67 -192.39,153.52zm3141.34 577.63c-27.32,15.12 -55.15,32.4 -82.67,47.95 -13.73,7.77 -75.61,39.57 -81.67,48.53l187.27 6.57 -22.93 -103.05zm-161.26 147.93c54.6,81.19 40.22,217.86 -22.97,301.99 -30.88,41.12 -48.61,47.71 -63.39,66.53 39.88,-3.91 83.42,-35.06 104,-53.08 76.25,-66.77 88.15,-189.09 20.41,-277.88 -8.67,-11.37 -27.19,-31.43 -38.05,-37.55z"/>
  </g>
 </g>
</svg>
